<?xml version="1.0" standalone="no"?>
<!DOCTYPE svg PUBLIC "-//W3C//DTD SVG 20010904//EN"
 "http://www.w3.org/TR/2001/REC-SVG-20010904/DTD/svg10.dtd">
<svg version="1.0" xmlns="http://www.w3.org/2000/svg"
 width="100.000000pt" height="100.000000pt" viewBox="0 0 100.000000 100.000000"
 preserveAspectRatio="xMidYMid meet">

<g transform="translate(0.000000,100.000000) scale(0.100000,-0.100000)"
fill="#ffffff" stroke="white" stroke-width="5">
<path d="M383 966 c-133 -33 -255 -131 -318 -258 -40 -82 -61 -193 -33 -183 8
3 19 31 26 63 46 221 258 380 477 357 38 -4 82 -8 97 -9 14 -2 34 -10 43 -19
9 -10 21 -15 26 -12 5 4 9 3 9 -2 0 -4 22 -21 48 -37 55 -34 105 -93 144 -168
15 -29 27 -49 28 -43 0 5 6 3 12 -3 10 -10 10 -15 -1 -21 -16 -10 -6 -31 15
-31 19 0 18 10 -6 71 -88 223 -334 351 -567 295z"/>
<path d="M413 827 c-24 -5 -43 -15 -43 -22 0 -17 24 -25 41 -14 8 5 24 9 35 9
12 0 25 7 28 16 5 12 10 13 19 6 7 -6 32 -15 55 -20 37 -9 42 -8 42 8 0 10 -9
20 -20 23 -11 3 -20 0 -20 -6 0 -8 -4 -7 -12 1 -14 14 -66 14 -125 -1z"/>
<path d="M615 800 c3 -5 10 -10 16 -10 5 0 9 5 9 10 0 6 -7 10 -16 10 -8 0
-12 -4 -9 -10z"/>
<path d="M640 776 c0 -2 18 -15 39 -29 21 -14 53 -46 71 -71 20 -27 38 -42 46
-39 19 7 4 34 -54 95 -33 36 -52 48 -73 48 -16 0 -29 -2 -29 -4z"/>
<path d="M528 739 c-43 -28 -46 -33 -36 -53 l12 -21 6 24 c3 13 16 31 29 40
l24 15 -5 -92 c-3 -50 -3 -92 0 -92 3 0 27 14 54 31 32 21 47 37 44 46 -4 8
-6 19 -6 24 0 5 -5 9 -11 9 -6 0 -9 -9 -6 -20 3 -14 -3 -26 -20 -40 -14 -11
-29 -20 -32 -20 -4 0 -5 41 -3 90 3 50 3 90 1 90 -2 0 -25 -14 -51 -31z"/>
<path d="M343 752 c-6 -4 -14 -55 -18 -119 -9 -133 -1 -144 65 -98 33 23 42
25 55 15 20 -16 19 -30 -2 -46 -36 -26 -3 -25 36 2 42 28 55 50 23 40 -24 -8
-50 39 -26 48 8 3 14 12 14 21 0 13 -4 14 -21 5 -11 -7 -22 -10 -24 -8 -1 2
-22 35 -45 73 -23 39 -43 71 -44 72 -1 1 -7 -1 -13 -5z m74 -165 c-1 -4 -17
-17 -35 -28 l-32 -21 0 84 0 83 35 -55 c19 -30 33 -59 32 -63z"/>
<path d="M438 450 c-209 -138 -227 -152 -216 -170 7 -10 17 -16 23 -13 5 4 47
31 93 60 45 29 84 53 86 53 2 0 15 -19 29 -42 14 -24 37 -54 52 -68 52 -49
155 -22 228 59 52 58 51 102 -6 195 -24 38 -47 71 -52 73 -6 1 -112 -65 -237
-147z m241 26 c17 -29 31 -64 31 -78 0 -40 -73 -98 -123 -98 -26 0 -42 15 -81
77 l-26 43 82 55 c46 30 84 55 85 55 1 0 15 -24 32 -54z"/>
<path d="M572 448 c-34 -22 -60 -43 -58 -46 5 -5 136 76 136 84 0 10 -20 0
-78 -38z"/>
<path d="M603 419 c-83 -55 -81 -70 2 -18 36 23 65 45 65 50 0 12 2 13 -67
-32z"/>
<path d="M630 389 c-25 -17 -52 -34 -60 -39 -8 -5 -12 -11 -8 -15 6 -6 128 70
128 80 0 10 -16 3 -60 -26z"/>
<path d="M955 570 c-3 -5 -3 -15 1 -21 6 -11 23 6 24 24 0 10 -18 9 -25 -3z"/>
<path d="M240 549 c-16 -14 -19 -19 -8 -15 13 4 22 -3 32 -22 14 -26 13 -28
-19 -49 l-33 -22 -17 25 c-9 13 -13 29 -10 34 9 15 -7 12 -29 -5 -14 -11 -16
-15 -5 -15 14 0 56 -62 75 -113 l10 -28 25 20 c13 12 17 19 9 16 -10 -3 -22 5
-33 24 -17 29 -17 29 14 52 l32 22 19 -23 c11 -14 16 -30 12 -42 -6 -19 -5
-19 21 -2 15 10 22 20 16 22 -19 6 -83 113 -77 128 8 20 -5 17 -34 -7z"/>
<path d="M895 500 c-7 -12 2 -30 16 -30 12 0 12 27 0 35 -5 3 -12 1 -16 -5z"/>
<path d="M26 428 c-7 -30 14 -88 32 -88 10 0 12 7 8 26 -4 15 -10 39 -13 55
-7 35 -18 37 -27 7z"/>
<path d="M803 395 c-15 -16 -17 -55 -4 -55 7 0 31 51 31 66 0 9 -16 2 -27 -11z"/>
<path d="M867 394 c-3 -3 -3 -12 0 -19 6 -17 33 -8 33 11 0 14 -21 19 -33 8z"/>
<path d="M908 302 c-15 -17 -25 -32 -23 -34 7 -7 -61 -86 -106 -124 -55 -46
-138 -84 -201 -91 -68 -8 -57 -29 13 -25 82 5 170 52 252 133 37 38 65 73 62
79 -3 5 -2 10 3 10 12 0 35 55 30 70 -2 6 -15 -2 -30 -18z"/>
<path d="M50 313 c0 -22 62 -110 110 -159 63 -63 168 -119 244 -130 71 -10 56
15 -21 36 -78 21 -162 72 -219 132 -24 26 -44 50 -44 54 0 12 -50 74 -61 74
-5 0 -9 -3 -9 -7z"/>
<path d="M821 286 c-12 -14 -5 -26 16 -26 15 0 18 26 4 34 -5 3 -14 0 -20 -8z"/>
<path d="M730 279 c0 -5 5 -7 10 -4 6 3 10 8 10 11 0 2 -4 4 -10 4 -5 0 -10
-5 -10 -11z"/>
<path d="M710 248 c0 -17 2 -18 15 -8 8 7 15 14 15 15 0 2 -7 5 -15 9 -10 4
-15 -1 -15 -16z"/>
<path d="M751 237 c-8 -10 -4 -20 17 -41 28 -26 29 -26 46 -7 14 15 15 24 6
40 -12 24 -52 28 -69 8z m49 -23 c0 -14 -3 -14 -15 -4 -8 7 -15 14 -15 16 0 2
7 4 15 4 8 0 15 -7 15 -16z"/>
<path d="M623 216 c-49 -20 -65 -37 -44 -50 11 -7 116 47 114 59 -3 15 -15 14
-70 -9z"/>
<path d="M700 188 c0 -7 9 -24 19 -37 17 -22 20 -23 40 -9 22 15 19 30 -4 22
-8 -3 -18 4 -25 15 -12 23 -30 28 -30 9z"/>
<path d="M427 183 c-12 -11 -8 -23 8 -23 8 0 15 7 15 15 0 16 -12 20 -23 8z"/>
<path d="M480 170 c0 -13 7 -20 19 -20 28 0 35 17 12 29 -27 15 -31 14 -31 -9z"/>
<path d="M645 166 c-16 -12 -16 -14 0 -45 12 -25 20 -30 28 -22 6 6 20 11 31
11 20 1 20 1 4 14 -10 7 -18 20 -18 29 0 21 -25 28 -45 13z"/>
<path d="M572 141 c-8 -5 -12 -21 -10 -37 2 -22 9 -30 27 -32 38 -6 54 33 25
62 -18 18 -24 19 -42 7z m28 -37 c0 -8 -4 -12 -10 -9 -5 3 -10 13 -10 21 0 8
5 12 10 9 6 -3 10 -13 10 -21z"/>
<path d="M450 116 c1 -45 31 -75 43 -43 4 10 6 10 6 0 2 -22 28 -14 35 10 11
40 7 44 -39 44 -26 0 -45 -4 -45 -11z"/>
<path d="M465 30 c-8 -12 20 -24 35 -15 5 3 10 10 10 16 0 12 -37 12 -45 -1z"/>
</g>
</svg>
