<?xml version="1.0" standalone="no"?>
<!DOCTYPE svg PUBLIC "-//W3C//DTD SVG 20010904//EN"
 "http://www.w3.org/TR/2001/REC-SVG-20010904/DTD/svg10.dtd">
<svg version="1.0" xmlns="http://www.w3.org/2000/svg"
 width="900.000000pt" height="891.000000pt" viewBox="0 0 900.000000 891.000000"
 preserveAspectRatio="xMidYMid meet">
<metadata>
Created by potrace 1.10, written by Peter Selinger 2001-2011
</metadata>
<g transform="translate(0.000000,891.000000) scale(0.100000,-0.100000)"
fill="#ffffff" stroke="none">
<path d="M3995 8798 c-2 -7 -6 -33 -7 -58 l-3 -45 -105 -18 c-224 -38 -433
-83 -555 -121 -22 -7 -67 -21 -100 -31 -77 -23 -184 -60 -243 -84 -232 -94
-336 -142 -617 -289 -16 -8 -57 -33 -89 -54 -32 -21 -80 -50 -105 -65 -25 -14
-114 -75 -198 -137 -145 -106 -152 -113 -151 -144 1 -24 -6 -41 -25 -60 l-26
-26 -24 22 c-13 12 -28 22 -34 22 -12 0 -43 -93 -43 -128 0 -32 -11 -52 -27
-52 -12 0 -14 8 -9 34 10 53 -10 54 -62 4 -26 -25 -55 -48 -65 -51 -9 -4 -21
-15 -25 -25 -4 -11 -55 -70 -113 -133 -161 -171 -287 -329 -425 -529 -79 -114
-94 -137 -114 -175 -6 -11 -19 -33 -29 -50 -44 -68 -91 -165 -91 -188 0 -25
-45 -103 -73 -126 -9 -7 -17 -26 -17 -41 0 -16 -11 -41 -24 -57 -21 -25 -75
-139 -96 -203 -5 -14 -18 -50 -30 -80 -74 -194 -152 -472 -194 -695 -30 -164
-76 -547 -76 -637 0 -36 16 -59 29 -42 10 15 208 171 240 190 28 17 30 23 45
133 53 385 121 666 226 941 12 30 25 66 30 80 33 103 207 457 288 590 264 429
568 776 947 1080 50 40 93 81 97 90 3 10 18 20 32 24 14 3 63 32 108 64 259
180 567 341 863 450 124 46 332 109 448 136 196 46 294 65 457 87 352 47 889
34 1220 -31 163 -31 286 -60 369 -86 25 -8 59 -14 78 -14 27 0 34 4 39 28 10
46 13 52 29 59 22 8 82 -21 130 -62 29 -26 49 -35 75 -35 43 0 59 -12 90 -65
13 -22 35 -50 48 -63 27 -26 162 -92 187 -92 16 0 60 25 84 48 60 58 93 49 71
-18 -17 -53 -1 -111 39 -139 16 -12 32 -21 35 -21 10 0 160 -93 271 -169 123
-83 206 -146 318 -238 72 -60 97 -74 97 -54 0 15 31 21 51 10 17 -9 19 -17 14
-52 l-6 -42 134 -135 c133 -135 292 -313 334 -373 12 -18 42 -59 67 -92 24
-33 71 -102 105 -152 49 -73 66 -92 83 -90 17 2 26 -9 46 -58 13 -33 44 -86
68 -118 46 -62 51 -76 33 -94 -8 -8 -2 -31 25 -88 20 -41 36 -78 36 -80 0 -3
13 -33 29 -67 16 -35 39 -90 52 -123 13 -33 27 -66 32 -72 13 -18 42 -16 57 2
18 22 46 19 117 -15 34 -16 67 -30 71 -30 5 0 17 -9 28 -21 18 -20 18 -21 -11
-72 -30 -54 -71 -97 -93 -97 -7 0 -30 9 -52 20 -44 22 -55 15 -39 -27 13 -32
35 -116 50 -183 12 -59 29 -100 41 -100 5 0 21 9 35 20 46 36 131 61 181 54
l45 -7 -6 44 c-3 24 -15 76 -27 114 -20 67 -41 141 -59 213 -5 18 -28 81 -51
140 -23 59 -48 125 -57 147 -8 22 -28 68 -44 102 -16 35 -29 65 -29 69 0 8
-106 220 -156 311 -97 178 -256 415 -387 578 -27 33 -57 76 -67 95 -10 19 -87
103 -170 185 -83 83 -160 167 -171 188 -14 27 -25 37 -37 33 -11 -4 -33 9 -61
37 -25 23 -59 53 -76 67 -18 14 -77 61 -131 105 -89 72 -268 204 -312 230 -9
6 -46 28 -82 51 -149 94 -587 314 -625 314 -7 0 -16 4 -20 10 -3 5 -20 14 -38
19 -18 5 -57 19 -87 31 -63 25 -220 78 -265 90 -16 4 -68 19 -115 33 -47 13
-121 32 -165 41 -44 10 -98 21 -120 26 -61 13 -282 47 -356 55 -56 5 -67 4
-73 -10 -5 -13 -10 -14 -28 -4 -13 7 -26 17 -30 23 -5 8 -127 11 -405 11
l-397 0 -7 33 c-3 17 -12 39 -19 47 -15 18 -49 20 -55 3z m2633 -830 c-2 -13
-10 -23 -18 -23 -8 0 -16 10 -18 23 -3 17 2 22 18 22 16 0 21 -5 18 -22z
m-4565 -262 c16 -23 15 -23 -8 -12 -14 6 -25 17 -25 24 0 20 16 14 33 -12z
m-166 -4 c19 -14 21 -22 15 -47 -5 -16 -15 -31 -23 -33 -25 -5 -51 72 -32 91
9 10 16 8 40 -11z m6247 -1092 c30 -11 34 -35 9 -48 -12 -7 -25 -3 -49 16 -18
14 -30 30 -28 34 7 11 37 10 68 -2z"/>
<path d="M3365 8181 c-100 -30 -115 -38 -115 -63 1 -26 3 -37 55 -233 21 -77
41 -159 46 -182 9 -48 29 -83 45 -83 15 0 77 21 87 30 4 4 -2 44 -14 90 -21
80 -21 83 -4 97 11 7 27 13 38 13 24 0 97 43 124 72 32 36 43 100 28 159 -23
87 -68 119 -167 118 -35 0 -90 -8 -123 -18z m134 -86 c71 -36 46 -142 -37
-158 -35 -7 -43 2 -60 65 -21 79 -20 81 18 95 45 16 46 16 79 -2z"/>
<path d="M4472 8187 c-10 -12 -33 -90 -50 -172 -14 -69 -34 -56 -65 43 -37
117 -48 132 -97 132 -47 0 -70 -8 -70 -25 0 -11 29 -84 76 -192 8 -18 21 -49
29 -68 46 -108 43 -105 101 -105 62 0 71 9 102 105 10 33 34 106 52 161 18 56
30 109 27 118 -8 20 -89 23 -105 3z"/>
<path d="M4735 8184 c-119 -66 -148 -237 -57 -333 22 -23 53 -43 77 -50 43
-12 153 -15 179 -5 26 10 38 41 26 64 -9 17 -21 20 -78 20 -77 0 -132 25 -132
61 0 20 4 20 123 17 l122 -3 3 60 c2 68 -22 122 -71 159 -38 28 -149 33 -192
10z m129 -80 c9 -8 16 -27 16 -40 0 -24 -2 -25 -57 -22 -47 2 -58 7 -61 21 -9
45 68 76 102 41z"/>
<path d="M5504 8190 c-12 -5 -24 -21 -27 -39 -5 -22 -12 -31 -26 -31 -22 0
-51 -35 -51 -61 0 -9 10 -23 21 -31 l22 -14 -21 -107 c-27 -134 -19 -169 48
-204 74 -39 121 -28 123 28 2 26 -3 36 -22 45 -13 7 -28 18 -32 26 -11 17 -2
90 18 146 15 43 16 44 51 37 39 -7 52 4 52 47 0 19 -9 31 -32 45 -30 18 -33
23 -33 69 0 49 0 49 -35 51 -19 1 -44 -2 -56 -7z"/>
<path d="M5112 8146 c-6 -13 -16 -69 -22 -124 -6 -55 -15 -115 -20 -133 -16
-53 -12 -97 8 -108 9 -5 35 -11 56 -12 l40 -4 22 119 c12 67 28 125 37 134 9
8 32 16 53 16 45 2 66 28 62 76 -3 30 -7 35 -31 38 -16 2 -42 -6 -62 -18 l-35
-22 -9 25 c-6 16 -20 26 -41 31 -46 9 -46 9 -58 -18z"/>
<path d="M3845 8133 c-74 -39 -105 -94 -105 -185 0 -124 79 -208 195 -208 152
0 248 129 202 275 -30 98 -83 135 -190 135 -46 -1 -83 -7 -102 -17z m148 -105
c13 -18 22 -48 25 -85 3 -48 0 -63 -18 -85 -36 -47 -87 -33 -120 32 -43 85
-12 174 58 168 24 -2 41 -11 55 -30z"/>
<path d="M5729 8034 c-7 -9 -7 -35 0 -86 15 -110 25 -273 17 -301 -4 -19 -18
-30 -53 -43 -65 -24 -73 -31 -73 -69 0 -45 20 -59 72 -50 76 13 143 67 240
195 120 157 178 241 174 249 -3 4 -26 16 -51 26 -44 16 -47 16 -67 -1 -11 -11
-24 -28 -29 -39 -5 -11 -18 -33 -29 -50 -11 -16 -24 -40 -29 -52 -6 -12 -19
-27 -31 -33 -20 -10 -20 -8 -20 102 0 62 -4 119 -9 127 -14 22 -98 41 -112 25z"/>
<path d="M2955 7851 c-105 -27 -175 -112 -175 -213 0 -43 7 -65 33 -108 46
-78 91 -102 183 -98 84 4 137 33 181 100 24 36 28 52 28 112 0 60 -5 78 -28
113 -48 76 -141 115 -222 94z m75 -127 c80 -72 75 -193 -8 -194 -55 0 -122 81
-122 149 0 31 6 44 26 60 37 29 58 26 104 -15z"/>
<path d="M5232 7713 c-6 -16 -14 -47 -17 -71 -7 -45 -47 -102 -72 -102 -19 0
-103 49 -103 61 0 5 10 19 21 30 30 30 12 39 -81 39 -41 0 -91 5 -110 10 -86
26 -598 4 -805 -34 -217 -40 -495 -121 -503 -146 -2 -6 11 -50 28 -98 22 -56
33 -101 31 -130 -1 -49 -8 -48 88 -21 43 12 45 12 72 -19 38 -42 49 -40 49 8
0 22 3 40 8 41 27 3 46 9 51 18 16 26 322 82 566 103 32 3 34 11 20 75 -8 35
-21 26 131 93 25 11 49 18 53 15 5 -2 14 -25 20 -49 17 -67 52 -104 109 -112
26 -4 63 -14 82 -24 19 -9 64 -20 100 -24 115 -12 340 -63 489 -113 57 -18
105 -32 108 -30 21 21 4 269 -21 302 -6 8 -54 26 -106 39 -156 41 -152 37
-174 139 -4 15 -10 27 -15 27 -5 0 -13 -12 -19 -27z"/>
<path d="M2618 7650 c-9 -6 -24 -30 -34 -55 -19 -50 -17 -49 -43 -33 -15 9
-24 6 -55 -18 -20 -16 -36 -32 -36 -36 0 -19 225 -308 240 -308 9 0 34 15 55
33 l39 34 -35 48 c-19 27 -49 70 -68 94 -28 39 -32 51 -28 86 4 25 13 45 26
54 27 17 26 37 -1 78 -24 35 -33 38 -60 23z"/>
<path d="M5747 7424 c-11 -11 6 -120 24 -150 10 -16 30 -37 45 -44 34 -19 97
-17 129 4 31 20 74 86 67 104 -9 25 -165 92 -214 92 -24 0 -47 -3 -51 -6z"/>
<path d="M2291 7379 c-42 -17 -101 -70 -121 -110 -30 -57 -26 -123 10 -186 90
-156 256 -156 383 -1 42 52 45 67 17 91 -29 25 -44 21 -74 -18 -36 -47 -109
-89 -141 -81 -14 4 -25 11 -25 17 0 12 58 69 128 126 54 45 55 71 2 116 -58
49 -126 67 -179 46z m60 -99 c5 0 9 -10 9 -22 0 -28 -74 -92 -95 -84 -17 6
-20 49 -4 77 12 23 47 40 67 33 8 -2 18 -4 23 -4z"/>
<path d="M1843 7177 c-26 -29 -77 -86 -113 -127 -35 -41 -72 -85 -82 -96 -19
-21 -18 -22 7 -53 15 -17 34 -31 43 -31 10 0 43 32 76 70 32 39 67 75 77 80
16 9 19 6 24 -17 3 -16 12 -53 20 -83 7 -30 21 -89 30 -130 41 -190 67 -246
105 -232 10 4 50 45 91 92 40 47 87 101 105 120 86 93 89 102 50 139 -32 30
-44 23 -131 -74 -37 -42 -72 -74 -78 -72 -12 4 -27 48 -50 152 -61 267 -68
288 -102 303 -20 9 -28 5 -72 -41z"/>
<path d="M6003 7119 c-16 -23 -32 -48 -38 -55 -11 -16 -3 -23 120 -99 225
-140 444 -331 619 -540 92 -109 108 -137 122 -205 9 -48 12 -51 34 -38 16 10
22 8 39 -13 11 -13 20 -27 21 -31 0 -4 13 -26 29 -50 16 -24 48 -78 70 -119
23 -42 50 -84 61 -94 11 -10 20 -27 20 -39 0 -38 42 -126 61 -126 14 0 171 72
238 109 27 14 23 31 -13 46 -32 14 -34 18 -29 48 4 25 -5 51 -40 117 -106 203
-217 374 -360 550 -82 101 -370 387 -443 439 -28 20 -71 51 -96 69 -42 32 -50
34 -137 36 -50 2 -94 -1 -97 -5 -2 -4 9 -18 26 -30 16 -13 30 -28 30 -35 0
-30 -24 -22 -78 24 -50 43 -110 82 -126 82 -3 0 -18 -19 -33 -41z"/>
<path d="M5010 6887 c-69 -46 -171 -115 -228 -153 -57 -38 -111 -73 -120 -79
-8 -5 -48 -32 -86 -58 -39 -27 -135 -91 -213 -143 -79 -52 -143 -101 -143
-109 0 -7 19 -42 41 -77 23 -35 51 -78 63 -96 12 -19 27 -31 37 -29 8 2 141
89 295 192 153 103 288 190 298 193 19 5 19 -9 12 -748 l-6 -753 41 -69 c23
-37 46 -68 53 -68 6 0 232 148 501 328 353 236 491 334 493 349 2 11 -10 40
-26 64 -16 24 -41 63 -56 87 -15 24 -33 45 -41 48 -8 3 -100 -52 -212 -127
-351 -236 -448 -299 -462 -299 -12 0 -13 108 -6 728 4 400 8 735 7 745 -1 25
-89 157 -105 157 -7 0 -68 -38 -137 -83z"/>
<path d="M3104 6913 c-21 -15 -68 -46 -104 -69 -36 -24 -86 -57 -111 -75 l-46
-33 -6 -1048 c-4 -619 -3 -1057 2 -1071 17 -44 114 -187 127 -187 7 0 104 62
216 137 112 75 312 209 444 299 133 89 255 171 271 183 16 12 36 19 44 16 9
-3 37 -40 63 -83 26 -42 76 -122 111 -177 35 -55 86 -137 114 -181 88 -143 96
-153 114 -159 11 -4 31 4 55 22 20 15 44 33 53 38 94 57 149 100 149 117 0 10
-33 72 -74 136 -269 423 -298 472 -293 486 3 8 65 53 136 101 72 48 131 94
131 102 0 15 -60 119 -109 188 -18 26 -35 39 -47 38 -11 -1 -78 -41 -149 -88
l-130 -87 -22 29 c-13 15 -41 57 -63 93 -22 36 -46 74 -53 85 -41 66 -106 169
-142 225 -23 36 -59 93 -81 128 -21 35 -46 74 -54 87 -8 13 -41 65 -73 117
-32 51 -81 127 -108 168 -27 41 -54 84 -59 95 -34 65 -252 395 -260 395 -4 0
-25 -12 -46 -27z m14 -513 c12 -16 22 -32 22 -35 0 -5 127 -217 180 -300 8
-13 35 -56 60 -95 25 -39 52 -82 60 -95 8 -13 41 -65 73 -117 32 -51 87 -138
122 -193 35 -55 80 -126 100 -158 20 -31 35 -65 33 -74 -2 -8 -129 -100 -283
-204 -154 -103 -299 -202 -323 -219 -23 -17 -47 -28 -52 -25 -6 4 -7 238 -4
638 6 550 4 648 -10 754 -18 139 -19 153 -8 153 5 0 18 -13 30 -30z"/>
<path d="M1425 6612 c-22 -16 -75 -102 -75 -121 0 -11 15 -53 34 -93 18 -40
50 -112 71 -159 20 -48 46 -96 58 -106 44 -40 53 -37 104 38 27 39 58 82 69
97 l21 26 49 -32 49 -32 27 31 c42 50 42 66 -2 97 -34 24 -39 32 -40 67 0 31
-6 44 -26 59 -25 18 -26 18 -53 -2 -32 -23 -24 -27 -169 70 -56 37 -104 68
-105 68 -1 0 -6 -4 -12 -8z m124 -212 c34 -23 61 -47 61 -55 0 -25 -35 -75
-50 -73 -13 3 -90 139 -90 160 0 15 19 8 79 -32z"/>
<path d="M1185 5973 c-58 -63 -81 -157 -53 -218 6 -14 27 -35 45 -46 45 -28
83 -20 151 31 29 22 61 40 71 40 43 0 30 -60 -23 -109 -31 -29 -33 -52 -8 -74
29 -26 48 -20 85 26 52 63 67 100 67 160 0 65 -23 100 -76 117 -47 16 -75 7
-140 -42 -32 -23 -60 -38 -69 -34 -26 10 -17 57 18 94 l32 33 -28 25 c-35 30
-41 30 -72 -3z"/>
<path d="M820 5700 c-31 -62 -28 -68 60 -108 44 -20 80 -40 80 -44 0 -4 -15
-28 -34 -52 -59 -77 -59 -156 1 -226 50 -58 118 -90 191 -90 105 0 172 70 172
180 0 43 3 50 20 50 13 0 27 14 41 42 21 40 21 42 3 56 -11 8 -35 21 -54 29
-19 8 -75 34 -125 58 -49 24 -138 66 -197 94 -59 28 -114 51 -123 51 -8 0 -24
-18 -35 -40z m338 -244 c67 -42 67 -112 0 -141 -28 -11 -38 -11 -73 3 -51 19
-63 29 -81 65 -13 24 -13 34 -3 58 6 16 19 34 28 39 25 16 83 5 129 -24z"/>
<path d="M6145 5439 c-33 -21 -67 -42 -75 -46 -8 -4 -26 -14 -40 -24 -48 -33
-242 -159 -244 -159 -1 0 -53 -33 -114 -72 -61 -40 -195 -127 -297 -193 -102
-66 -229 -148 -281 -182 -53 -34 -98 -63 -102 -65 -4 -2 -47 -30 -97 -62 -49
-33 -121 -79 -160 -104 -137 -88 -201 -130 -315 -204 -63 -41 -140 -91 -170
-110 -30 -19 -93 -60 -140 -90 -110 -71 -213 -137 -270 -174 -25 -16 -49 -31
-55 -34 -5 -3 -50 -32 -100 -64 -49 -33 -121 -79 -160 -104 -38 -25 -113 -73
-165 -107 -52 -34 -133 -86 -180 -117 -171 -111 -263 -170 -333 -216 -40 -26
-76 -49 -82 -52 -13 -6 -77 -48 -185 -119 -46 -31 -89 -58 -95 -61 -5 -3 -41
-26 -80 -51 -152 -100 -271 -176 -292 -187 -38 -20 -38 -48 0 -105 18 -29 37
-59 40 -67 4 -8 15 -27 25 -41 9 -15 37 -58 61 -98 24 -39 48 -71 55 -71 6 0
54 28 106 62 52 33 131 85 175 113 137 89 170 110 180 115 6 3 48 30 95 61 83
55 185 121 324 210 39 24 125 80 193 124 67 44 169 110 225 146 57 37 164 106
238 154 143 93 149 94 180 42 8 -14 48 -79 88 -144 41 -65 126 -203 191 -308
210 -342 232 -371 382 -511 78 -72 165 -125 279 -171 54 -22 209 -52 268 -53
119 0 360 44 522 97 77 25 88 30 203 82 37 17 69 31 71 31 3 0 56 29 120 65
329 184 593 415 776 680 195 281 237 541 136 840 -37 109 -176 358 -396 710
-45 72 -197 319 -208 338 -7 12 -21 34 -30 49 -45 70 -138 221 -147 237 -18
31 -37 51 -49 50 -6 0 -38 -18 -71 -40z m-144 -704 c21 -33 44 -70 51 -82 7
-13 60 -100 118 -193 58 -94 111 -181 118 -193 7 -12 21 -34 30 -49 70 -110
131 -217 170 -298 l47 -95 -1 -115 c0 -110 -2 -118 -36 -191 -52 -111 -95
-174 -184 -268 -91 -97 -189 -174 -329 -258 -211 -126 -379 -183 -546 -183
-159 0 -270 50 -399 180 -76 77 -143 172 -248 353 -7 12 -21 34 -30 49 -9 15
-51 81 -92 148 -41 67 -83 133 -92 148 -10 15 -21 33 -25 41 -3 8 -21 37 -39
64 -18 27 -30 56 -27 64 5 13 42 39 248 171 39 25 108 70 155 100 47 30 110
71 140 90 30 19 98 63 150 97 52 34 140 91 195 127 55 35 162 104 237 153 76
50 146 95 155 100 10 6 45 28 78 50 105 70 106 69 156 -10z"/>
<path d="M5844 4462 c-39 -26 -113 -74 -165 -107 -51 -33 -142 -91 -201 -130
-59 -38 -143 -92 -185 -119 -43 -28 -123 -79 -178 -115 -55 -36 -104 -68 -110
-71 -5 -3 -30 -18 -55 -34 -139 -90 -179 -117 -183 -123 -7 -11 55 -103 68
-103 6 0 40 19 76 42 35 22 87 55 114 73 28 18 95 61 150 97 55 35 128 82 162
104 35 21 118 75 186 119 68 44 154 100 193 124 210 135 265 173 271 187 6 16
-43 95 -62 100 -5 1 -42 -18 -81 -44z"/>
<path d="M6055 4149 c-27 -16 -95 -59 -150 -94 -55 -35 -140 -89 -190 -120
-49 -31 -135 -85 -190 -120 -55 -36 -109 -69 -120 -75 -11 -5 -54 -32 -95 -59
-41 -28 -106 -69 -145 -93 -147 -89 -205 -130 -205 -146 0 -46 76 -113 94 -83
3 5 59 41 123 81 65 40 152 94 193 120 41 27 117 75 168 107 52 32 104 65 117
73 13 8 66 41 117 73 51 32 127 81 168 108 41 26 82 52 90 55 29 14 149 94
155 104 8 13 -46 94 -65 97 -8 2 -37 -11 -65 -28z"/>
<path d="M6223 3847 c-43 -28 -123 -80 -178 -115 -55 -36 -136 -88 -180 -117
-44 -28 -132 -85 -195 -125 -63 -40 -148 -95 -188 -121 -40 -27 -74 -49 -76
-49 -13 0 -246 -162 -246 -171 0 -17 27 -63 49 -83 20 -18 21 -18 73 15 29 19
81 53 116 76 34 24 65 43 68 43 2 0 17 9 32 19 35 25 234 154 247 161 11 6 98
61 200 129 39 25 75 48 80 51 12 6 168 107 233 151 23 16 45 29 48 29 13 0 74
54 74 65 0 22 -43 83 -62 88 -10 3 -50 -17 -95 -46z"/>
<path d="M7940 5445 c-7 -9 -18 -39 -25 -68 -11 -51 -13 -53 -73 -82 -34 -16
-62 -34 -62 -41 0 -6 18 -19 39 -29 63 -28 82 -55 88 -124 4 -36 10 -61 17
-61 7 0 30 18 51 41 39 40 41 41 95 35 30 -3 65 -8 78 -12 29 -8 30 17 2 74
-26 54 -25 74 6 123 29 46 28 75 -1 71 -11 -1 -41 -5 -66 -8 -45 -6 -46 -6
-91 45 -39 46 -46 50 -58 36z"/>
<path d="M8657 5153 c-9 -2 -29 -27 -43 -54 -25 -49 -26 -50 -67 -47 l-42 3 3
-65 c6 -117 47 -159 142 -145 31 5 37 2 59 -30 13 -19 27 -35 32 -35 5 0 9 39
9 87 0 80 2 89 24 108 24 20 24 22 12 85 -11 59 -15 67 -46 82 -35 18 -49 20
-83 11z"/>
<path d="M837 5122 c-15 -4 -43 -22 -62 -41 -32 -31 -35 -39 -35 -93 0 -33 5
-69 11 -80 9 -17 7 -24 -15 -45 -19 -18 -26 -34 -26 -62 l0 -38 108 -17 c59
-10 135 -24 170 -32 104 -23 108 -22 122 38 12 46 11 53 -5 64 -18 14 -83 28
-172 39 -95 12 -134 81 -71 128 26 19 29 19 116 3 116 -21 168 -21 176 0 3 9
6 36 6 60 0 38 -3 44 -20 44 -12 0 -53 6 -93 14 -95 19 -175 26 -210 18z"/>
<path d="M2239 5080 c-24 -17 -74 -51 -111 -76 -38 -25 -68 -48 -68 -51 0 -6
93 -158 195 -318 106 -166 145 -233 145 -247 0 -7 -33 -35 -73 -62 -280 -191
-441 -296 -453 -296 -7 0 -30 27 -51 60 -21 34 -57 91 -81 128 -44 69 -139
219 -157 250 -31 52 -66 101 -75 107 -19 12 -230 -135 -230 -160 0 -14 29 -63
135 -230 35 -55 83 -131 107 -168 24 -38 50 -79 58 -92 8 -13 41 -65 73 -117
32 -51 87 -138 122 -193 35 -55 89 -140 120 -190 31 -49 85 -135 120 -190 35
-55 82 -130 105 -167 23 -38 46 -68 49 -68 4 0 29 15 55 32 26 18 55 38 64 43
9 6 39 25 65 43 38 27 47 38 41 54 -6 22 -40 78 -139 233 -35 55 -76 120 -91
145 -15 25 -51 82 -81 127 -29 45 -53 90 -53 100 0 12 37 43 108 90 59 40 140
95 180 123 41 27 75 50 77 50 2 0 36 23 76 50 40 28 77 50 83 50 6 0 21 -15
32 -33 49 -74 133 -206 170 -265 21 -35 46 -74 54 -87 8 -13 41 -67 74 -119
41 -67 64 -96 78 -96 17 0 48 18 181 109 26 18 47 36 47 41 0 11 -122 213
-182 300 -24 36 -47 72 -51 80 -4 8 -15 27 -25 42 -30 47 -211 333 -326 518
-37 58 -91 143 -120 190 -30 47 -78 123 -107 170 -55 90 -78 120 -89 120 -4 0
-27 -14 -51 -30z"/>
<path d="M905 4611 c-107 -7 -147 -25 -175 -81 -42 -83 -14 -260 42 -260 43 0
54 15 40 53 -28 79 -2 182 34 132 8 -10 14 -35 14 -54 0 -43 35 -106 72 -134
20 -15 42 -21 80 -20 48 1 56 4 85 39 28 32 33 45 33 89 0 29 -6 59 -15 71
-17 22 -20 65 -5 80 7 7 7 25 2 50 l-8 39 -54 1 c-30 0 -95 -2 -145 -5z m114
-145 c32 -34 26 -77 -13 -91 -24 -8 -31 -6 -47 14 -23 28 -34 65 -25 86 9 24
59 18 85 -9z"/>
<path d="M8079 4518 c-6 -24 -14 -54 -18 -68 -5 -17 -23 -33 -59 -50 -81 -39
-82 -44 -19 -80 30 -17 60 -37 66 -43 5 -7 11 -39 13 -72 2 -32 8 -60 13 -62
6 -2 34 16 62 40 50 43 53 44 100 36 26 -4 55 -10 64 -14 30 -11 31 14 5 70
-14 29 -26 58 -26 63 0 14 30 71 41 77 5 4 9 18 9 32 0 26 0 26 -63 19 l-63
-6 -49 50 c-27 27 -53 50 -57 50 -4 0 -12 -19 -19 -42z"/>
<path d="M945 4149 c-33 -5 -115 -13 -183 -19 -166 -14 -172 -17 -172 -79 0
-68 9 -73 114 -59 81 11 89 10 101 -6 14 -19 31 -173 21 -184 -4 -3 -51 -13
-104 -22 -107 -17 -111 -21 -97 -97 l6 -35 97 5 c53 2 140 10 192 16 52 6 130
14 173 17 59 4 79 10 86 23 14 25 1 100 -18 110 -9 5 -53 3 -105 -6 -61 -9
-92 -11 -101 -3 -6 5 -17 49 -24 97 -15 105 -12 109 87 118 110 10 127 16 130
51 2 17 -2 42 -7 57 -10 26 -14 27 -73 26 -35 -1 -90 -5 -123 -10z"/>
<path d="M376 3983 c-18 -20 -26 -39 -26 -65 0 -33 5 -41 40 -64 22 -15 39
-31 38 -35 -2 -4 -19 -18 -38 -31 -18 -13 -54 -49 -78 -80 l-45 -58 22 -107
c38 -182 40 -190 55 -227 12 -28 21 -36 40 -36 24 0 26 -4 26 -40 0 -21 -5
-50 -11 -63 -8 -18 -7 -37 6 -81 13 -46 24 -61 53 -80 33 -21 51 -25 157 -28
l120 -3 -1 30 c-1 17 -19 82 -41 145 -63 183 -105 350 -143 570 -6 36 -18 77
-25 93 -9 18 -11 37 -5 56 5 19 4 48 -4 78 l-12 48 -51 3 c-45 3 -54 0 -77
-25z"/>
<path d="M7457 3705 c-20 -22 -37 -43 -37 -47 0 -14 -47 -8 -60 7 -9 11 -27
15 -59 13 -45 -3 -46 -3 -49 -41 -2 -27 5 -54 23 -89 32 -61 25 -73 -46 -82
-42 -6 -55 -4 -71 11 -19 17 -21 17 -39 -6 -10 -13 -19 -31 -19 -40 0 -9 -7
-25 -15 -35 -19 -25 -19 -60 -2 -94 8 -15 21 -42 30 -60 9 -19 17 -49 17 -67
0 -19 6 -64 14 -102 8 -37 17 -85 21 -106 6 -38 7 -38 26 -21 10 9 31 42 45
73 15 30 42 77 60 104 19 28 37 61 40 76 6 25 83 265 105 326 26 73 59 199 56
210 -2 5 -20 -8 -40 -30z"/>
<path d="M7865 3558 c-8 -28 -15 -58 -15 -65 0 -12 -55 -42 -102 -57 -35 -11
-19 -40 36 -70 59 -32 66 -44 66 -118 0 -26 4 -49 9 -52 5 -4 33 14 63 40 45
38 58 44 83 40 74 -15 115 -18 115 -10 0 5 -11 32 -25 59 -32 65 -31 75 6 135
17 27 27 55 24 61 -5 7 -29 9 -74 4 l-67 -7 -42 46 c-23 25 -47 46 -52 46 -5
0 -16 -23 -25 -52z"/>
<path d="M8366 2866 c-75 -94 -121 -136 -148 -136 -30 0 -56 -33 -112 -144
-33 -66 -64 -116 -72 -116 -13 0 -34 38 -65 119 -7 17 -13 21 -20 14 -8 -8 -7
-50 2 -141 11 -117 10 -134 -4 -165 -10 -19 -17 -45 -17 -57 0 -13 -8 -24 -19
-27 -10 -3 -63 -68 -118 -145 -106 -153 -246 -318 -269 -318 -7 0 -20 -15 -28
-34 -8 -18 -63 -84 -123 -146 -99 -102 -112 -111 -131 -101 -32 17 -37 14 -51
-35 -9 -28 -27 -58 -50 -79 -51 -47 -205 -168 -275 -216 -90 -62 -121 -84
-126 -89 -3 -3 -14 -10 -25 -17 -11 -7 -78 -47 -150 -90 -145 -87 -494 -263
-522 -263 -3 0 -19 -6 -36 -14 -70 -30 -97 -39 -222 -81 -150 -49 -247 -76
-360 -101 -129 -28 -221 -52 -241 -62 -11 -6 -43 -17 -73 -26 -48 -15 -55 -15
-80 0 -24 14 -38 15 -130 2 l-104 -13 -13 -53 c-23 -90 -3 -111 129 -127 43
-6 49 -10 65 -43 16 -35 20 -37 62 -36 106 3 183 18 194 39 6 11 21 37 33 58
l23 37 78 0 c74 0 78 -1 103 -31 l26 -32 59 17 c32 9 82 23 109 30 94 26 170
48 205 61 19 7 76 28 125 45 208 74 537 229 705 330 263 160 564 384 754 562
82 76 90 98 37 98 -24 0 -31 6 -45 43 -31 82 -9 106 40 42 16 -22 41 -39 66
-47 39 -12 39 -11 79 33 143 157 303 349 369 443 19 27 47 66 63 88 15 21 27
41 27 44 0 4 14 23 30 44 34 43 41 108 14 130 -36 31 6 98 46 72 25 -15 55
-15 68 1 23 28 155 283 198 381 41 96 42 121 8 157 -25 26 -26 31 -16 71 18
71 22 107 13 113 -5 3 -43 -37 -85 -89z"/>
<path d="M520 2830 c-19 -12 -5 -56 68 -210 72 -154 128 -262 183 -355 10 -16
26 -46 36 -65 9 -19 58 -95 108 -170 126 -187 132 -196 200 -279 33 -40 74
-91 90 -111 53 -67 168 -193 260 -285 359 -359 790 -660 1233 -861 28 -13 76
-35 105 -48 83 -38 128 -56 192 -77 33 -11 69 -25 80 -31 11 -6 33 -15 50 -19
16 -4 50 -15 75 -24 24 -9 67 -22 95 -30 27 -7 94 -25 148 -39 54 -15 102 -24
107 -21 6 4 10 15 10 25 0 10 4 21 10 25 12 8 110 -56 110 -73 0 -18 34 -28
120 -36 41 -3 119 -13 173 -22 84 -14 101 -14 111 -3 17 19 51 176 47 214 -2
19 -55 43 -111 50 -30 4 -67 16 -81 26 -15 10 -53 21 -85 25 -33 3 -81 12
-109 19 -27 7 -88 21 -135 30 -47 10 -143 36 -215 58 -82 25 -151 41 -187 42
-51 1 -62 5 -91 33 -18 18 -38 32 -44 32 -6 0 -41 13 -78 30 -37 16 -81 30
-98 30 -19 0 -41 9 -56 24 -15 13 -87 56 -162 94 -299 154 -541 319 -804 548
-199 173 -402 388 -549 582 -42 55 -51 62 -81 62 -22 0 -41 8 -54 21 l-20 22
-31 -33 c-26 -28 -30 -29 -30 -12 0 11 18 38 40 60 22 22 40 46 40 54 0 8 -13
33 -28 54 -39 54 -152 244 -198 334 -22 41 -60 96 -86 122 -32 31 -48 55 -48
72 0 32 -15 41 -62 37 -31 -2 -39 2 -55 26 -33 51 -54 62 -118 63 -33 0 -67
-4 -75 -10z"/>
<path d="M7440 2644 c-6 -14 -10 -38 -10 -53 0 -34 -35 -68 -83 -82 -20 -5
-41 -18 -47 -29 -9 -16 -3 -22 44 -46 58 -29 76 -55 76 -109 0 -40 8 -65 22
-65 6 0 31 19 55 41 48 44 43 44 161 23 39 -8 40 1 7 66 -32 62 -31 69 5 128
44 73 42 76 -44 67 l-73 -6 -40 45 c-46 53 -60 56 -73 20z"/>
<path d="M6624 2549 c-49 -14 -66 -40 -62 -95 3 -45 5 -49 35 -57 48 -14 96
19 117 81 27 74 26 77 -19 79 -22 1 -54 -2 -71 -8z"/>
<path d="M2337 2379 c-10 -6 -33 -8 -51 -5 -24 5 -37 2 -48 -11 -72 -78 -108
-122 -108 -130 0 -9 101 -97 195 -169 200 -153 510 -328 720 -407 94 -35 122
-46 160 -60 47 -19 130 -43 165 -50 14 -2 52 -12 85 -21 57 -15 61 -15 85 2
14 11 43 22 65 26 45 9 75 23 75 35 0 5 -26 17 -57 27 -69 22 -97 47 -89 79 5
19 -1 27 -29 44 -21 12 -35 28 -35 40 0 27 -35 58 -74 67 -100 21 -358 124
-486 194 -8 5 -39 21 -69 37 -40 21 -63 41 -88 81 -36 56 -47 62 -62 35 -9
-17 -11 -17 -43 1 -31 18 -187 133 -198 146 -3 3 -18 16 -34 28 -32 24 -51 27
-79 11z"/>
<path d="M6406 2382 c-3 -5 0 -26 5 -47 9 -33 8 -45 -11 -82 -31 -63 -30 -121
5 -167 15 -20 32 -36 38 -36 11 0 87 60 133 104 17 17 54 53 82 79 70 64 68
77 -8 77 -52 0 -64 4 -84 25 -15 16 -30 23 -40 19 -9 -3 -34 3 -56 15 -44 23
-56 25 -64 13z"/>
<path d="M6011 2090 c-116 -79 -289 -171 -421 -225 -36 -14 -74 -30 -85 -35
-11 -5 -38 -14 -60 -20 -22 -7 -62 -20 -90 -30 -68 -23 -156 -49 -180 -52 -15
-2 -21 -12 -23 -40 -2 -27 -12 -44 -34 -63 l-31 -26 19 -33 c10 -17 43 -53 71
-80 53 -48 53 -49 95 -38 24 6 54 13 68 15 14 3 50 15 80 26 30 12 87 33 125
46 67 22 126 45 170 65 11 5 65 30 120 55 55 25 107 50 115 55 8 6 30 18 48
27 l33 17 25 -32 c14 -18 30 -32 35 -32 5 0 9 20 9 44 0 62 6 73 48 87 20 7
48 24 62 38 14 14 40 37 59 51 42 32 38 50 -25 121 -24 27 -44 55 -44 62 0 19
-56 57 -82 56 -13 -1 -61 -27 -107 -59z"/>
<path d="M6476 1688 c-92 -61 -170 -117 -173 -123 -7 -19 50 -105 69 -105 9 0
34 11 54 25 20 14 42 25 49 25 11 0 85 -91 85 -105 0 -2 26 -42 58 -88 31 -46
62 -92 68 -103 6 -10 18 -20 27 -22 24 -5 127 67 127 87 0 9 -45 84 -100 167
-55 82 -100 156 -100 165 0 8 20 30 45 48 32 23 42 36 38 49 -12 33 -56 92
-67 92 -7 0 -88 -50 -180 -112z"/>
<path d="M3894 1743 c-3 -16 -12 -44 -19 -63 -28 -71 -67 -186 -72 -212 -4
-22 -1 -28 18 -32 13 -2 50 -10 82 -17 120 -26 186 35 187 172 0 79 -13 96
-83 105 -39 6 -50 12 -66 40 -25 41 -39 43 -47 7z"/>
<path d="M4325 1614 c-16 -34 -16 -44 -5 -84 7 -25 16 -69 21 -99 4 -30 14
-58 21 -62 23 -15 128 -15 397 0 83 4 116 10 119 20 2 7 -23 39 -57 71 -33 32
-61 67 -61 78 0 10 -16 36 -36 56 -34 35 -39 37 -80 30 -30 -4 -49 -2 -60 7
-10 8 -55 14 -128 17 l-113 4 -18 -38z"/>
<path d="M6130 1496 c-83 -23 -150 -77 -181 -143 -26 -56 -24 -89 9 -148 44
-81 94 -98 238 -80 66 8 83 0 65 -33 -13 -25 -84 -45 -132 -37 -47 8 -79 -1
-79 -23 0 -27 42 -108 62 -121 13 -8 32 -8 70 0 153 30 257 122 258 228 0 46
-46 127 -87 153 -30 18 -44 20 -106 14 -40 -3 -87 -9 -104 -12 -30 -6 -33 -4
-33 20 0 37 44 57 120 54 82 -3 88 6 51 81 -30 59 -33 61 -69 60 -20 0 -57 -6
-82 -13z"/>
<path d="M5730 1300 c-8 -6 -32 -15 -52 -20 -23 -7 -38 -17 -38 -26 0 -16 33
-116 84 -259 33 -90 34 -128 3 -142 -16 -8 -27 -7 -39 1 -17 12 -44 69 -58
121 -14 48 -69 205 -81 226 -12 24 -31 24 -99 0 -54 -19 -55 -20 -54 -58 1
-21 18 -83 38 -138 21 -55 41 -111 45 -125 21 -63 56 -121 89 -147 34 -25 44
-28 117 -28 71 1 87 4 135 31 91 51 129 141 97 231 -34 94 -39 110 -47 138 -5
17 -18 55 -30 85 -12 30 -26 70 -31 88 -8 26 -15 32 -37 32 -15 0 -34 -5 -42
-10z"/>
<path d="M5089 1116 c-3 -3 -43 -11 -89 -17 -97 -12 -150 -31 -150 -55 0 -9 6
-42 14 -73 7 -31 21 -99 31 -151 55 -306 49 -285 78 -288 30 -4 133 23 141 37
3 4 -2 34 -11 65 -24 85 -8 88 64 15 55 -56 65 -62 99 -61 52 2 144 23 151 35
3 5 -36 50 -86 101 l-91 91 26 50 c21 41 25 59 20 98 -7 60 -32 106 -72 129
-32 19 -115 34 -125 24z m21 -166 c22 -42 -21 -90 -47 -54 -14 19 -17 56 -6
67 13 14 43 6 53 -13z"/>
<path d="M4530 1058 c-90 -5 -170 -14 -177 -20 -7 -6 -13 -32 -13 -59 0 -58
14 -69 88 -69 36 0 52 -4 56 -16 3 -9 6 -77 7 -152 0 -75 4 -159 7 -187 l7
-50 80 0 80 0 1 195 c1 107 2 200 3 207 0 7 23 13 59 15 l57 3 0 70 0 70 -45
1 c-25 1 -119 -3 -210 -8z"/>
<path d="M4260 372 c0 -5 11 -19 25 -32 34 -32 31 -42 -16 -64 -61 -28 -72
-51 -56 -117 l14 -54 49 -6 c67 -9 290 -13 302 -5 6 3 8 15 5 25 -3 11 2 41
10 68 9 26 17 80 19 118 l3 70 -177 3 c-98 1 -178 -1 -178 -6z"/>
</g>
</svg>
